<?xml version="1.0" standalone="no"?><!DOCTYPE svg PUBLIC "-//W3C//DTD SVG 1.1//EN" "http://www.w3.org/Graphics/SVG/1.1/DTD/svg11.dtd"><svg t="1623482291805" class="icon" viewBox="0 0 1025 1024" version="1.1" xmlns="http://www.w3.org/2000/svg" p-id="6133" xmlns:xlink="http://www.w3.org/1999/xlink" width="200.1953125" height="200"><defs><style type="text/css"></style></defs><path d="M31.4 70.8h115.3c13.6 0 32.1-8 31.2-19.2C162.3 22.1 133.2 6.8 101.5 6.8c-38.8 0-71.7 25.7-83.3 61 4.1 2 8.4 3 13.2 3z" fill="#d4237a" p-id="6134"></path><path d="M102.6 70.8H29.8C13.4 70.8 0 57.3 0 41v-4.3C0 20.2 13.5 6.9 29.8 6.9h72.8c16.4 0 29.8 13.5 29.8 29.8V41c0.1 16.5-13.6 29.8-29.8 29.8z" fill="#d4237a" p-id="6135"></path><path d="M266.5 799.3c-17.4 2.7-33.8-9.1-36.7-26.5L117 69.7c-2.7-17.4 9.1-33.8 26.5-36.7 17.4-2.7 33.8 9.1 36.7 26.5l112.9 703.2c2.9 17.3-9.1 33.9-26.6 36.6z" fill="#d4237a" p-id="6136"></path><path d="M108 33.9c-19.2 0-46 36-46 36.9 24.3-0.5 51.8 2.9 62 42.7 12.1-5.4 18.6-30.8 18.6-45 0.2-19-15.5-34.6-34.6-34.6z m257.8 761.4l-105.1-47.4c-12.4-5.6-21.9 12.9-31.1 22.4 3.4 22.2 15 37.8 42 54.5 27.4 16.9 80 6.2 105-21.2-2.9-3.5-6.7-6.3-10.8-8.3z" fill="#d4237a" p-id="6137"></path><path d="M331.5 768.8c-31.1 0-38.6-11.4-43.3-36-12.7 3.9-22.2 15.4-24 29.5-2.4 19 11.1 36.3 30.2 38.6" fill="#d4237a" p-id="6138"></path><path d="M919 832.8H306.1c-17.6 0-32-14.4-32-32s14.4-32 32-32h613c17.6 0 32 14.4 32 32-0.1 17.7-14.4 32-32.1 32zM257.7 943.8c0 40.4 32.7 73.1 73.1 73.1s73.1-32.7 73.1-73.1c0-40.4-32.7-73.1-73.1-73.1-40.4-0.1-73.1 32.6-73.1 73.1z" fill="#d4237a" p-id="6139"></path><path d="M770.4 943.8c0 40.4 32.7 73.1 73.1 73.1 40.4 0 73.1-32.7 73.1-73.1 0-40.4-32.7-73.1-73.1-73.1-40.4-0.1-73.1 32.6-73.1 73.1z" fill="#d4237a" p-id="6140"></path><path d="M366 693.1c-15.3 0-28.3-11.8-29.6-27.2-1.4-16.3 10.7-30.7 27.2-32.1L859.5 592.5h1.3c41-3.4 48-50.4 48-50.4l57.1-345.8c-1.1-25.5-22.2-45.8-48-45.8H286.1c-16.4 0-29.7-13.2-29.7-29.7s13.2-29.7 29.7-29.7h631.7c59.2 0 107.4 48.2 107.4 107.4v2.4l-57.1 346.3c-8.3 58.1-48.3 104.1-106 104.8l-493.5 41h-2.6v0.1z" fill="#d4237a" p-id="6141"></path></svg>